<svg width="38" height="38" viewBox="0 0 38 38" fill="none" xmlns="http://www.w3.org/2000/svg">
<path d="M23.7224 29.8755C22.843 29.8755 21.9833 29.4816 21.2195 28.7332C19.6932 30.2301 17.7413 30.2312 16.2149 28.7332C15.4512 29.4816 14.5915 29.8755 13.7121 29.8755C10.6005 29.8755 8.16309 24.9745 8.16309 18.7174C8.16309 12.4614 10.6005 7.56049 13.7121 7.56049C14.5915 7.56049 15.4512 7.95435 16.2149 8.7028C17.7424 7.20481 19.6943 7.20699 21.2195 8.7028C21.9833 7.95435 22.843 7.56049 23.7224 7.56049C26.834 7.56049 29.2725 12.4614 29.2725 18.7174C29.2725 24.9745 26.834 29.8755 23.7224 29.8755ZM21.9233 27.8953C22.5004 28.4877 23.1049 28.7866 23.7224 28.7866C26.1412 28.7866 28.1836 24.1759 28.1836 18.7174C28.1836 13.2601 26.1412 8.64934 23.7224 8.64934C23.1049 8.64934 22.5004 8.94829 21.9233 9.54072C23.2521 11.3911 24.089 14.3195 24.2384 17.6493C24.6552 17.8446 24.9236 18.2516 24.9236 18.7174C24.9236 19.1757 24.6509 19.5892 24.2384 19.7845C24.089 23.1154 23.2521 26.0449 21.9233 27.8953ZM16.9187 27.8953C18.0719 29.079 19.3626 29.079 20.5169 27.8953C19.7434 26.8162 19.1226 25.34 18.7178 23.6282C18.3119 25.34 17.6922 26.8162 16.9187 27.8953ZM13.7121 8.64934C11.2944 8.64934 9.25194 13.2601 9.25194 18.7174C9.25194 24.1759 11.2944 28.7866 13.7121 28.7866C14.3307 28.7866 14.9341 28.4877 15.5112 27.8953C14.1823 26.0449 13.3455 23.1176 13.196 19.7845C12.7804 19.5903 12.5131 19.1844 12.5131 18.7174C12.5131 18.2516 12.7804 17.8457 13.196 17.6515C13.3455 14.3195 14.1823 11.3911 15.5112 9.54072C14.9341 8.94829 14.3307 8.64934 13.7121 8.64934ZM19.2895 19.7594C19.4259 22.6605 20.1361 25.3128 21.2195 26.9951C22.3029 25.3128 23.0143 22.6605 23.1507 19.7594C22.7677 19.5521 22.5233 19.1571 22.5233 18.7174C22.5233 18.2778 22.7677 17.8828 23.1507 17.6766C23.0143 14.7755 22.3029 12.1232 21.2195 10.4408C20.1361 12.1232 19.4259 14.7755 19.2895 17.6766C19.6724 17.8828 19.9179 18.2778 19.9179 18.7174C19.9179 19.1582 19.6724 19.5532 19.2895 19.7594ZM14.2838 19.7594C14.4213 22.6594 15.1315 25.3128 16.2149 26.9951C17.2983 25.3128 18.0086 22.6594 18.1461 19.7594C17.7631 19.5532 17.5176 19.1582 17.5176 18.7174C17.5176 18.2778 17.7631 17.8828 18.1461 17.6766C18.0097 14.7755 17.2983 12.1232 16.2149 10.4419C15.1315 12.1232 14.4213 14.7755 14.2838 17.6755C14.6679 17.8817 14.9133 18.2778 14.9133 18.7174C14.9133 19.1582 14.6679 19.5532 14.2838 19.7594ZM18.7178 19.9994C18.7123 20.0976 18.7058 20.1958 18.6992 20.2929L18.7178 20.1718L18.7363 20.2929C18.7298 20.1958 18.7232 20.0976 18.7178 19.9994ZM18.7178 18.0835L18.5345 18.1425C18.2759 18.2254 18.1014 18.4567 18.1014 18.7174C18.1014 18.9793 18.2748 19.2106 18.5345 19.2935L18.7178 19.3513L18.9011 19.2935C19.1597 19.2106 19.3342 18.9793 19.3342 18.7174C19.3342 18.4567 19.1597 18.2254 18.9011 18.1425L18.7178 18.0835ZM23.7027 18.0901L23.5391 18.1425C23.2805 18.2254 23.107 18.4567 23.107 18.7174C23.107 18.9793 23.2805 19.2106 23.5391 19.2935L23.7027 19.3459L23.8784 19.2979C24.1544 19.2237 24.3399 18.9902 24.3399 18.7174C24.3399 18.4458 24.1544 18.2123 23.8784 18.1381L23.7027 18.0901ZM13.7328 18.0901L13.5561 18.1381C13.2811 18.2134 13.0968 18.4458 13.0968 18.7174C13.0968 18.9902 13.2811 19.2226 13.5561 19.2979L13.7328 19.3448L13.8954 19.2935C14.1551 19.2106 14.3296 18.9793 14.3296 18.7174C14.3296 18.4556 14.1551 18.2254 13.8954 18.1425L13.7328 18.0901ZM18.6992 17.1409C18.7058 17.2391 18.7123 17.3373 18.7178 17.4355C18.7232 17.3373 18.7298 17.2391 18.7363 17.1409L18.7178 17.2631L18.6992 17.1409ZM16.9187 9.54072C17.6922 10.6198 18.3119 12.0959 18.7178 13.8078C19.1226 12.0959 19.7434 10.6198 20.5169 9.54072C19.3626 8.35694 18.0719 8.35694 16.9187 9.54072Z" fill="#0A2926"/>
<path d="M18.7178 37.4368C8.39663 37.4368 0 29.039 0 18.7178C0 8.39661 8.39663 -2.28882e-05 18.7178 -2.28882e-05C29.0391 -2.28882e-05 37.4357 8.39661 37.4357 18.7178C37.4357 29.039 29.0391 37.4368 18.7178 37.4368ZM18.7178 1.08883C8.9967 1.08883 1.08886 8.99668 1.08886 18.7178C1.08886 28.4401 8.9967 36.349 18.7178 36.349C28.439 36.349 36.3468 28.4401 36.3468 18.7178C36.3468 8.99668 28.439 1.08883 18.7178 1.08883Z" fill="#0A2926"/>
</svg>
