<svg width="132" height="130" viewBox="0 0 132 130" fill="none" xmlns="http://www.w3.org/2000/svg">
<path d="M131 65C131 100.411 101.898 129.116 66 129.116M131 65C131 29.5893 101.898 0.884353 66 0.884353M131 65H66.2922M66 129.116C30.1016 129.116 1 100.411 1 65C1 29.5893 30.1016 0.884353 66 0.884353M66 129.116V0.884353" stroke="#0A2926" stroke-width="1.15733" stroke-miterlimit="10"/>
<path d="M65.5578 71.6326C62.8537 84.6267 51.8449 94.6959 38.1428 96.3946" stroke="#0A2926" stroke-width="1.15733" stroke-miterlimit="10" stroke-dasharray="4.6 4.6"/>
<path d="M27.5306 96.3946C14.1291 93.7789 3.70412 82.7497 1.88434 68.9796" stroke="#0A2926" stroke-width="1.15733" stroke-miterlimit="10" stroke-dasharray="4.6 4.6"/>
<path d="M1.88434 58.3673C4.58839 45.3746 15.5972 35.3041 29.2993 33.6054" stroke="#0A2926" stroke-width="1.15733" stroke-miterlimit="10" stroke-dasharray="4.6 4.6"/>
<path d="M39.9116 33.6054C53.3131 36.2224 63.7381 47.2503 65.5579 61.0204" stroke="#0A2926" stroke-width="1.15733" stroke-miterlimit="10" stroke-dasharray="4.6 4.6"/>
<path d="M35.7613 96.3312C35.0864 96.3726 34.4067 96.3946 33.7211 96.3946C33.0355 96.3946 32.3558 96.3726 31.6808 96.3312M1.9542 67.0981C1.90802 66.404 1.88434 65.705 1.88434 65C1.88434 64.295 1.90802 63.596 1.9542 62.9019M31.6808 33.6688C32.3558 33.6261 33.0355 33.6054 33.7211 33.6054C34.4067 33.6054 35.0864 33.6261 35.7613 33.6688M65.4879 62.9019C65.5341 63.596 65.5578 64.295 65.5578 65C65.5578 65.705 65.5341 66.404 65.4879 67.0981" stroke="#0A2926" stroke-width="1.15733" stroke-miterlimit="10"/>
<path d="M66.4421 6.02868e-06V130" stroke="#0A2926" stroke-width="1.15733" stroke-miterlimit="10"/>
</svg>
